<svg width="48" height="48" viewBox="0 0 48 48" fill="none" xmlns="http://www.w3.org/2000/svg">
<path d="M41.42 18.58L29.42 6.58C29.2357 6.4001 29.0184 6.25749 28.78 6.16C28.532 6.05923 28.2676 6.005 28 6H12C10.4087 6 8.88258 6.63214 7.75736 7.75736C6.63214 8.88258 6 10.4087 6 12V36C6 37.5913 6.63214 39.1174 7.75736 40.2426C8.88258 41.3679 10.4087 42 12 42H36C37.5913 42 39.1174 41.3679 40.2426 40.2426C41.3679 39.1174 42 37.5913 42 36V20C42.0015 19.7368 41.9511 19.4759 41.8515 19.2322C41.752 18.9885 41.6054 18.7669 41.42 18.58ZM18 10H26V14H18V10ZM30 38H18V32C18 31.4696 18.2107 30.9609 18.5858 30.5858C18.9609 30.2107 19.4696 30 20 30H28C28.5304 30 29.0391 30.2107 29.4142 30.5858C29.7893 30.9609 30 31.4696 30 32V38ZM38 36C38 36.5304 37.7893 37.0391 37.4142 37.4142C37.0391 37.7893 36.5304 38 36 38H34V32C34 30.4087 33.3679 28.8826 32.2426 27.7574C31.1174 26.6321 29.5913 26 28 26H20C18.4087 26 16.8826 26.6321 15.7574 27.7574C14.6321 28.8826 14 30.4087 14 32V38H12C11.4696 38 10.9609 37.7893 10.5858 37.4142C10.2107 37.0391 10 36.5304 10 36V12C10 11.4696 10.2107 10.9609 10.5858 10.5858C10.9609 10.2107 11.4696 10 12 10H14V16C14 16.5304 14.2107 17.0391 14.5858 17.4142C14.9609 17.7893 15.4696 18 16 18H28C28.5304 18 29.0391 17.7893 29.4142 17.4142C29.7893 17.0391 30 16.5304 30 16V12.82L38 20.82V36Z" fill="#1D242D"/>
</svg>
