<svg width="48" height="48" viewBox="0 0 48 48" fill="none" xmlns="http://www.w3.org/2000/svg">
<path d="M23.4141 10.5861C23.789 10.9611 23.9996 11.4697 23.9996 12.0001C23.9996 12.5304 23.789 13.039 23.4141 13.4141L14.8281 22.0001H38.0001C38.5305 22.0001 39.0392 22.2108 39.4143 22.5858C39.7893 22.9609 40.0001 23.4696 40.0001 24.0001C40.0001 24.5305 39.7893 25.0392 39.4143 25.4143C39.0392 25.7893 38.5305 26.0001 38.0001 26.0001H14.8281L23.4141 34.5861C23.7784 34.9633 23.98 35.4685 23.9754 35.9929C23.9709 36.5173 23.7605 37.0189 23.3897 37.3897C23.0189 37.7605 22.5173 37.9709 21.9929 37.9754C21.4685 37.98 20.9633 37.7784 20.5861 37.4141L8.58606 25.4141C8.21112 25.039 8.00049 24.5304 8.00049 24.0001C8.00049 23.4697 8.21112 22.9611 8.58606 22.5861L20.5861 10.5861C20.9611 10.2111 21.4697 10.0005 22.0001 10.0005C22.5304 10.0005 23.039 10.2111 23.4141 10.5861Z" fill="white"/>
</svg>
