<svg width="48" height="48" viewBox="0 0 48 48" fill="none" xmlns="http://www.w3.org/2000/svg">
<path d="M20 36C20.5304 36 21.0391 35.7893 21.4142 35.4142C21.7893 35.0391 22 34.5304 22 34V22C22 21.4696 21.7893 20.9609 21.4142 20.5858C21.0391 20.2107 20.5304 20 20 20C19.4696 20 18.9609 20.2107 18.5858 20.5858C18.2107 20.9609 18 21.4696 18 22V34C18 34.5304 18.2107 35.0391 18.5858 35.4142C18.9609 35.7893 19.4696 36 20 36ZM40 12H32V10C32 8.4087 31.3679 6.88258 30.2426 5.75736C29.1174 4.63214 27.5913 4 26 4H22C20.4087 4 18.8826 4.63214 17.7574 5.75736C16.6321 6.88258 16 8.4087 16 10V12H8C7.46957 12 6.96086 12.2107 6.58579 12.5858C6.21071 12.9609 6 13.4696 6 14C6 14.5304 6.21071 15.0391 6.58579 15.4142C6.96086 15.7893 7.46957 16 8 16H10V38C10 39.5913 10.6321 41.1174 11.7574 42.2426C12.8826 43.3679 14.4087 44 16 44H32C33.5913 44 35.1174 43.3679 36.2426 42.2426C37.3679 41.1174 38 39.5913 38 38V16H40C40.5304 16 41.0391 15.7893 41.4142 15.4142C41.7893 15.0391 42 14.5304 42 14C42 13.4696 41.7893 12.9609 41.4142 12.5858C41.0391 12.2107 40.5304 12 40 12ZM20 10C20 9.46957 20.2107 8.96086 20.5858 8.58579C20.9609 8.21071 21.4696 8 22 8H26C26.5304 8 27.0391 8.21071 27.4142 8.58579C27.7893 8.96086 28 9.46957 28 10V12H20V10ZM34 38C34 38.5304 33.7893 39.0391 33.4142 39.4142C33.0391 39.7893 32.5304 40 32 40H16C15.4696 40 14.9609 39.7893 14.5858 39.4142C14.2107 39.0391 14 38.5304 14 38V16H34V38ZM28 36C28.5304 36 29.0391 35.7893 29.4142 35.4142C29.7893 35.0391 30 34.5304 30 34V22C30 21.4696 29.7893 20.9609 29.4142 20.5858C29.0391 20.2107 28.5304 20 28 20C27.4696 20 26.9609 20.2107 26.5858 20.5858C26.2107 20.9609 26 21.4696 26 22V34C26 34.5304 26.2107 35.0391 26.5858 35.4142C26.9609 35.7893 27.4696 36 28 36Z" fill="#1D242D"/>
</svg>
