<svg width="48" height="48" viewBox="0 0 48 48" fill="none" xmlns="http://www.w3.org/2000/svg">
<path d="M46 18.6401C46.1253 18.1262 46.0539 17.5841 45.8 17.1201C45.1518 15.9954 44.2879 15.0097 43.2579 14.2197C42.2278 13.4296 41.0519 12.8508 39.7977 12.5163C38.5434 12.1818 37.2354 12.0983 35.9487 12.2706C34.6621 12.4428 33.4221 12.8675 32.3 13.5201L28 16.0001L18 11.3001C17.7157 11.1528 17.4002 11.0759 17.08 11.0759C16.7598 11.0759 16.4443 11.1528 16.16 11.3001L10.16 14.7601C9.86345 14.9311 9.61579 15.1754 9.4407 15.4696C9.26561 15.7637 9.16895 16.0979 9.15998 16.4401C9.15029 16.7848 9.22991 17.1262 9.39112 17.4311C9.55232 17.736 9.78962 17.994 10.08 18.1801L16.68 22.3401L13.2 24.3401L3.63998 25.5001C3.25567 25.5476 2.89342 25.7057 2.59722 25.9551C2.30102 26.2046 2.0836 26.5346 1.97136 26.9053C1.85911 27.2759 1.85688 27.6711 1.96491 28.043C2.07295 28.4148 2.28662 28.7473 2.57998 29.0001L9.65998 35.1201C10.5921 36.0097 11.7858 36.5756 13.0645 36.7341C14.3432 36.8925 15.6389 36.6352 16.76 36.0001L45 19.8601C45.2407 19.7352 45.4534 19.5626 45.6253 19.3528C45.7972 19.1431 45.9247 18.9006 46 18.6401ZM14.94 32.6401C14.5558 32.8515 14.1128 32.9308 13.6791 32.8657C13.2455 32.8007 12.8452 32.5949 12.54 32.2801L8.73998 29.0201L14.2 28.3601C14.4683 28.3257 14.7268 28.2373 14.96 28.1001L21.68 24.2401C21.9794 24.0673 22.2288 23.8199 22.4041 23.5219C22.5794 23.224 22.6744 22.8857 22.68 22.5401C22.6841 22.1968 22.5998 21.8583 22.4351 21.557C22.2705 21.2558 22.0311 21.002 21.74 20.8201L15.14 16.6401L17.34 15.3801L27.34 20.0201C27.6243 20.1674 27.9398 20.2443 28.26 20.2443C28.5802 20.2443 28.8957 20.1674 29.18 20.0201L34.3 17.0601C35.3492 16.4721 36.5509 16.213 37.7492 16.3164C38.9475 16.4198 40.087 16.881 41.02 17.6401L14.94 32.6401Z" fill="white"/>
</svg>
