<svg width="48" height="48" viewBox="0 0 48 48" fill="none" xmlns="http://www.w3.org/2000/svg">
<path d="M36.0001 8.96006C32.8175 5.77747 28.501 3.9895 24.0001 3.9895C19.4992 3.9895 15.1827 5.77747 12.0001 8.96006C8.81751 12.1427 7.02954 16.4592 7.02954 20.9601C7.02954 25.4609 8.81751 29.7775 12.0001 32.9601L22.5401 43.5201C22.726 43.7075 22.9472 43.8563 23.191 43.9578C23.4347 44.0594 23.6961 44.1117 23.9601 44.1117C24.2241 44.1117 24.4855 44.0594 24.7293 43.9578C24.973 43.8563 25.1942 43.7075 25.3801 43.5201L36.0001 32.8601C39.1694 29.6907 40.9499 25.3922 40.9499 20.9101C40.9499 16.428 39.1694 12.1294 36.0001 8.96006ZM33.1401 30.0001L24.0001 39.1801L14.8601 30.0001C13.0544 28.1927 11.8251 25.8906 11.3275 23.3846C10.8299 20.8787 11.0865 18.2816 12.0647 15.9214C13.0429 13.5613 14.6989 11.5442 16.8234 10.125C18.9478 8.70587 21.4453 7.94843 24.0001 7.94843C26.5549 7.94843 29.0524 8.70587 31.1768 10.125C33.3013 11.5442 34.9573 13.5613 35.9355 15.9214C36.9137 18.2816 37.1703 20.8787 36.6727 23.3846C36.1752 25.8906 34.9458 28.1927 33.1401 30.0001ZM18.0001 14.8201C16.3855 16.4396 15.4789 18.6332 15.4789 20.9201C15.4789 23.2069 16.3855 25.4005 18.0001 27.0201C19.1996 28.2216 20.7273 29.0422 22.3914 29.3789C24.0555 29.7155 25.782 29.5532 27.3542 28.9124C28.9265 28.2715 30.2745 27.1806 31.2291 25.7766C32.1837 24.3725 32.7024 22.7178 32.7201 21.0201C32.7291 19.8865 32.5107 18.7626 32.0779 17.7148C31.6451 16.6671 31.0066 15.7168 30.2001 14.9201C29.4074 14.1092 28.4623 13.4631 27.4189 13.019C26.3756 12.5749 25.2548 12.3414 24.1209 12.3321C22.987 12.3228 21.8625 12.5379 20.812 12.9648C19.7616 13.3918 18.8059 14.0223 18.0001 14.8201ZM27.3801 24.1801C26.6222 24.9495 25.6205 25.4319 24.5464 25.5446C23.4722 25.6573 22.3922 25.3933 21.4911 24.7979C20.59 24.2025 19.9237 23.3125 19.6061 22.2802C19.2885 21.2479 19.3394 20.1373 19.75 19.1384C20.1606 18.1394 20.9055 17.3141 21.8573 16.8035C22.809 16.293 23.9086 16.1289 24.968 16.3393C26.0273 16.5497 26.9807 17.1216 27.6651 17.9571C28.3495 18.7927 28.7224 19.84 28.7201 20.9201C28.691 22.1546 28.1731 23.3271 27.2801 24.1801H27.3801Z" fill="#1D242D"/>
</svg>
