<svg width="48" height="48" viewBox="0 0 48 48" fill="none" xmlns="http://www.w3.org/2000/svg">
<path d="M30.1963 25.2676L26 22.8457V14C26 13.4696 25.7893 12.9609 25.4142 12.5858C25.0391 12.2107 24.5304 12 24 12C23.4696 12 22.9609 12.2107 22.5858 12.5858C22.2107 12.9609 22 13.4696 22 14V24C21.9999 24.3511 22.0923 24.6961 22.2678 25.0002C22.4434 25.3043 22.6959 25.5569 23 25.7324L28.1963 28.7324C28.4238 28.8639 28.675 28.9493 28.9355 28.9836C29.196 29.018 29.4608 29.0007 29.7146 28.9328C29.9684 28.8648 30.2064 28.7475 30.4148 28.5875C30.6233 28.4276 30.7982 28.2281 30.9296 28.0005C31.061 27.7729 31.1462 27.5217 31.1804 27.2612C31.2147 27.0006 31.1973 26.7359 31.1292 26.4821C31.0611 26.2283 30.9436 25.9904 30.7836 25.782C30.6235 25.5736 30.4239 25.3988 30.1963 25.2676ZM24 4C20.0444 4 16.1776 5.17298 12.8886 7.37061C9.59962 9.56824 7.03617 12.6918 5.52242 16.3463C4.00867 20.0009 3.6126 24.0222 4.3843 27.9018C5.15601 31.7814 7.06082 35.3451 9.85787 38.1421C12.6549 40.9392 16.2186 42.844 20.0982 43.6157C23.9778 44.3874 27.9992 43.9913 31.6537 42.4776C35.3082 40.9638 38.4318 38.4004 40.6294 35.1114C42.827 31.8224 44 27.9556 44 24C43.9941 18.6975 41.8851 13.6138 38.1356 9.86438C34.3862 6.11493 29.3025 4.0059 24 4ZM24 40C20.8355 40 17.7421 39.0616 15.1109 37.3035C12.4797 35.5454 10.4289 33.0466 9.21794 30.1229C8.00693 27.1993 7.69008 23.9823 8.30745 20.8786C8.92481 17.7749 10.4487 14.9239 12.6863 12.6863C14.9239 10.4487 17.7749 8.9248 20.8786 8.30744C23.9823 7.69007 27.1993 8.00693 30.1229 9.21793C33.0466 10.4289 35.5454 12.4797 37.3035 15.1109C39.0616 17.7421 40 20.8355 40 24C39.9952 28.242 38.3079 32.3088 35.3084 35.3083C32.3088 38.3079 28.242 39.9951 24 40Z" fill="white"/>
</svg>
