<svg width="48" height="48" viewBox="0 0 48 48" fill="none" xmlns="http://www.w3.org/2000/svg">
<path fill-rule="evenodd" clip-rule="evenodd" d="M9.75736 9.75736C10.8826 8.63214 12.4087 8 14 8H18C19.1046 8 20 8.89543 20 10C20 11.1046 19.1046 12 18 12H14C13.4696 12 12.9609 12.2107 12.5858 12.5858C12.2107 12.9609 12 13.4696 12 14V38C12 38.5304 12.2107 39.0391 12.5858 39.4142C12.9609 39.7893 13.4696 40 14 40H34C34.5304 40 35.0391 39.7893 35.4142 39.4142C35.7893 39.0391 36 38.5304 36 38V14C36 13.4696 35.7893 12.9609 35.4142 12.5858C35.0391 12.2107 34.5304 12 34 12H30C28.8954 12 28 11.1046 28 10C28 8.89543 28.8954 8 30 8H34C35.5913 8 37.1174 8.63214 38.2426 9.75736C39.3679 10.8826 40 12.4087 40 14V38C40 39.5913 39.3679 41.1174 38.2426 42.2426C37.1174 43.3679 35.5913 44 34 44H14C12.4087 44 10.8826 43.3679 9.75736 42.2426C8.63214 41.1174 8 39.5913 8 38V14C8 12.4087 8.63214 10.8826 9.75736 9.75736Z" fill="white"/>
<path fill-rule="evenodd" clip-rule="evenodd" d="M22 8C20.8954 8 20 8.89543 20 10C20 11.1046 20.8954 12 22 12H26C27.1046 12 28 11.1046 28 10C28 8.89543 27.1046 8 26 8H22ZM16 10C16 6.68629 18.6863 4 22 4H26C29.3137 4 32 6.68629 32 10C32 13.3137 29.3137 16 26 16H22C18.6863 16 16 13.3137 16 10Z" fill="white"/>
<path fill-rule="evenodd" clip-rule="evenodd" d="M19.4645 21.4645C20.4021 20.5268 21.6739 20 23 20H28C29.1046 20 30 20.8954 30 22C30 23.1046 29.1046 24 28 24H23C22.7348 24 22.4804 24.1054 22.2929 24.2929C22.1054 24.4804 22 24.7348 22 25C22 25.2652 22.1054 25.5196 22.2929 25.7071C22.4804 25.8946 22.7348 26 23 26H25C26.3261 26 27.5979 26.5268 28.5355 27.4645C29.4732 28.4021 30 29.6739 30 31C30 32.3261 29.4732 33.5979 28.5355 34.5355C27.5979 35.4732 26.3261 36 25 36H20C18.8954 36 18 35.1046 18 34C18 32.8954 18.8954 32 20 32H25C25.2652 32 25.5196 31.8946 25.7071 31.7071C25.8946 31.5196 26 31.2652 26 31C26 30.7348 25.8946 30.4804 25.7071 30.2929C25.5196 30.1054 25.2652 30 25 30H23C21.6739 30 20.4021 29.4732 19.4645 28.5355C18.5268 27.5979 18 26.3261 18 25C18 23.6739 18.5268 22.4021 19.4645 21.4645Z" fill="white"/>
<path fill-rule="evenodd" clip-rule="evenodd" d="M24 18C25.1046 18 26 18.8954 26 20V22C26 23.1046 25.1046 24 24 24C22.8954 24 22 23.1046 22 22V20C22 18.8954 22.8954 18 24 18ZM24 32C25.1046 32 26 32.8954 26 34V36C26 37.1046 25.1046 38 24 38C22.8954 38 22 37.1046 22 36V34C22 32.8954 22.8954 32 24 32Z" fill="white"/>
</svg>
