<svg width="48" height="48" viewBox="0 0 48 48" fill="none" xmlns="http://www.w3.org/2000/svg">
<path fill-rule="evenodd" clip-rule="evenodd" d="M10 24C9.46957 24 8.96086 24.2107 8.58579 24.5858C8.21071 24.9609 8 25.4696 8 26V34C8 34.5304 8.21071 35.0391 8.58579 35.4142C8.96086 35.7893 9.46957 36 10 36H38C38.5304 36 39.0391 35.7893 39.4142 35.4142C39.7893 35.0391 40 34.5304 40 34V26C40 25.4696 39.7893 24.9609 39.4142 24.5858C39.0391 24.2107 38.5304 24 38 24C37.4696 24 36.9609 24.2107 36.5858 24.5858C36.2107 24.9609 36 25.4696 36 26V30C36 31.1046 35.1046 32 34 32H14C12.8954 32 12 31.1046 12 30V26C12 25.4696 11.7893 24.9609 11.4142 24.5858C11.0391 24.2107 10.5304 24 10 24ZM5.75736 21.7574C6.88258 20.6321 8.4087 20 10 20C11.5913 20 13.1174 20.6321 14.2426 21.7574C15.3679 22.8826 16 24.4087 16 26V28H32V26C32 24.4087 32.6321 22.8826 33.7574 21.7574C34.8826 20.6321 36.4087 20 38 20C39.5913 20 41.1174 20.6321 42.2426 21.7574C43.3679 22.8826 44 24.4087 44 26V34C44 35.5913 43.3679 37.1174 42.2426 38.2426C41.1174 39.3679 39.5913 40 38 40H10C8.4087 40 6.88258 39.3679 5.75736 38.2426C4.63214 37.1174 4 35.5913 4 34V26C4 24.4087 4.63214 22.8826 5.75736 21.7574Z" fill="white"/>
<path fill-rule="evenodd" clip-rule="evenodd" d="M16 8C14.9391 8 13.9217 8.42143 13.1716 9.17157C12.4214 9.92172 12 10.9391 12 12V22C12 23.1046 11.1046 24 10 24C8.89543 24 8 23.1046 8 22V12C8 9.87827 8.84285 7.84344 10.3431 6.34315C11.8434 4.84285 13.8783 4 16 4H32C34.1217 4 36.1566 4.84285 37.6569 6.34315C39.1571 7.84344 40 9.87827 40 12V22C40 23.1046 39.1046 24 38 24C36.8954 24 36 23.1046 36 22V12C36 10.9391 35.5786 9.92172 34.8284 9.17157C34.0783 8.42143 33.0609 8 32 8H16Z" fill="white"/>
<path fill-rule="evenodd" clip-rule="evenodd" d="M12 36C13.1046 36 14 36.8954 14 38V42C14 43.1046 13.1046 44 12 44C10.8954 44 10 43.1046 10 42V38C10 36.8954 10.8954 36 12 36Z" fill="white"/>
<path fill-rule="evenodd" clip-rule="evenodd" d="M36 36C37.1046 36 38 36.8954 38 38V42C38 43.1046 37.1046 44 36 44C34.8954 44 34 43.1046 34 42V38C34 36.8954 34.8954 36 36 36Z" fill="white"/>
</svg>
