<svg width="48" height="48" viewBox="0 0 48 48" fill="none" xmlns="http://www.w3.org/2000/svg">
<path d="M42.2401 32.4599C41.551 29.935 39.8995 27.7809 37.6401 26.4599L33.4201 23.9999L32.4601 13.0599C32.4337 12.7404 32.331 12.4319 32.1604 12.1604C31.9899 11.8889 31.7565 11.6624 31.4801 11.4999L25.4801 8.05993C25.1761 7.88439 24.8312 7.79198 24.4801 7.79198C24.129 7.79198 23.7841 7.88439 23.4801 8.05993C23.1761 8.22594 22.9204 8.46804 22.7381 8.76253C22.5558 9.05703 22.4531 9.39382 22.4401 9.73993L22.1401 17.5399L18.6401 15.5399L12.9201 7.83993C12.6875 7.53132 12.3705 7.29671 12.0074 7.16446C11.6442 7.03221 11.2506 7.00799 10.874 7.09473C10.4974 7.18148 10.154 7.37546 9.88536 7.65323C9.61669 7.93101 9.43425 8.28067 9.36009 8.65993L7.62009 17.8799C7.31707 19.1298 7.42368 20.444 7.92421 21.6287C8.42474 22.8134 9.29269 23.8059 10.4001 24.4599L38.5201 40.6799C38.9721 40.9458 39.5104 41.0235 40.0192 40.8963C40.5279 40.7692 40.9664 40.4472 41.2401 39.9999C41.8998 38.8728 42.328 37.6254 42.4997 36.3307C42.6714 35.036 42.5832 33.7201 42.2401 32.4599ZM38.4801 35.9999L12.4001 20.9999C12.0261 20.7716 11.7374 20.4268 11.5784 20.0185C11.4195 19.6102 11.399 19.161 11.5201 18.7399L12.4401 13.8599L15.7601 18.2599C15.9213 18.4788 16.1255 18.6626 16.3601 18.7999L23.0601 22.6799C23.3589 22.8527 23.6973 22.9453 24.0424 22.9485C24.3876 22.9518 24.7277 22.8657 25.0297 22.6986C25.3317 22.5315 25.5853 22.2891 25.7659 21.9949C25.9464 21.7007 26.0478 21.3649 26.0601 21.0199L26.3801 13.2199L28.5601 14.4799L29.5201 25.4199C29.5486 25.7413 29.6544 26.0511 29.8285 26.3227C30.0027 26.5944 30.2399 26.8199 30.5201 26.9799L35.6401 29.9999C36.3062 30.3842 36.8895 30.8967 37.3564 31.5077C37.8232 32.1188 38.1644 32.8163 38.3601 33.5599C38.5832 34.3539 38.6242 35.1879 38.4801 35.9999Z" fill="white"/>
</svg>
