<svg width="48" height="48" viewBox="0 0 48 48" fill="none" xmlns="http://www.w3.org/2000/svg">
<path fill-rule="evenodd" clip-rule="evenodd" d="M5.75736 7.75736C6.88258 6.63214 8.4087 6 10 6H24C25.5913 6 27.1174 6.63214 28.2426 7.75736C29.3679 8.88258 30 10.4087 30 12V16C30 17.1046 29.1046 18 28 18C26.8954 18 26 17.1046 26 16V12C26 11.4696 25.7893 10.9609 25.4142 10.5858C25.0391 10.2107 24.5304 10 24 10H10C9.46957 10 8.96086 10.2107 8.58579 10.5858C8.21071 10.9609 8 11.4696 8 12V36C8 36.5304 8.21071 37.0391 8.58579 37.4142C8.96086 37.7893 9.46957 38 10 38H24C24.5304 38 25.0391 37.7893 25.4142 37.4142C25.7893 37.0391 26 36.5304 26 36V32C26 30.8954 26.8954 30 28 30C29.1046 30 30 30.8954 30 32V36C30 37.5913 29.3679 39.1174 28.2426 40.2426C27.1174 41.3679 25.5913 42 24 42H10C8.4087 42 6.88258 41.3679 5.75736 40.2426C4.63214 39.1174 4 37.5913 4 36V12C4 10.4087 4.63214 8.88258 5.75736 7.75736Z" fill="#1D242D"/>
<path fill-rule="evenodd" clip-rule="evenodd" d="M34.5858 16.5858C35.3668 15.8047 36.6332 15.8047 37.4142 16.5858L43.4142 22.5858C44.1953 23.3668 44.1953 24.6332 43.4142 25.4142L37.4142 31.4142C36.6332 32.1953 35.3668 32.1953 34.5858 31.4142C33.8047 30.6332 33.8047 29.3668 34.5858 28.5858L37.1716 26H14C12.8954 26 12 25.1046 12 24C12 22.8954 12.8954 22 14 22H37.1716L34.5858 19.4142C33.8047 18.6332 33.8047 17.3668 34.5858 16.5858Z" fill="#1D242D"/>
</svg>
