<svg width="48" height="48" viewBox="0 0 48 48" fill="none" xmlns="http://www.w3.org/2000/svg">
<path fill-rule="evenodd" clip-rule="evenodd" d="M4 42C4 40.8954 4.89543 40 6 40H42C43.1046 40 44 40.8954 44 42C44 43.1046 43.1046 44 42 44H6C4.89543 44 4 43.1046 4 42Z" fill="#1D242D"/>
<path fill-rule="evenodd" clip-rule="evenodd" d="M4 20C4 18.8954 4.89543 18 6 18H42C43.1046 18 44 18.8954 44 20C44 21.1046 43.1046 22 42 22H6C4.89543 22 4 21.1046 4 20Z" fill="#1D242D"/>
<path fill-rule="evenodd" clip-rule="evenodd" d="M23.2122 4.16171C23.7153 3.9461 24.2847 3.9461 24.7878 4.16171L38.7878 10.1617C39.8031 10.5968 40.2734 11.7726 39.8383 12.7878C39.4032 13.8031 38.2274 14.2734 37.2122 13.8383L24 8.17594L10.7878 13.8383C9.77258 14.2734 8.59682 13.8031 8.16171 12.7878C7.7266 11.7726 8.1969 10.5968 9.21216 10.1617L23.2122 4.16171Z" fill="#1D242D"/>
<path fill-rule="evenodd" clip-rule="evenodd" d="M8 18C9.10457 18 10 18.8954 10 20V42C10 43.1046 9.10457 44 8 44C6.89543 44 6 43.1046 6 42V20C6 18.8954 6.89543 18 8 18Z" fill="#1D242D"/>
<path fill-rule="evenodd" clip-rule="evenodd" d="M40 18C41.1046 18 42 18.8954 42 20V42C42 43.1046 41.1046 44 40 44C38.8954 44 38 43.1046 38 42V20C38 18.8954 38.8954 18 40 18Z" fill="#1D242D"/>
<path fill-rule="evenodd" clip-rule="evenodd" d="M16 26C17.1046 26 18 26.8954 18 28V34C18 35.1046 17.1046 36 16 36C14.8954 36 14 35.1046 14 34V28C14 26.8954 14.8954 26 16 26Z" fill="#1D242D"/>
<path fill-rule="evenodd" clip-rule="evenodd" d="M24 26C25.1046 26 26 26.8954 26 28V34C26 35.1046 25.1046 36 24 36C22.8954 36 22 35.1046 22 34V28C22 26.8954 22.8954 26 24 26Z" fill="#1D242D"/>
<path fill-rule="evenodd" clip-rule="evenodd" d="M32 26C33.1046 26 34 26.8954 34 28V34C34 35.1046 33.1046 36 32 36C30.8954 36 30 35.1046 30 34V28C30 26.8954 30.8954 26 32 26Z" fill="#1D242D"/>
</svg>
