<svg width="48" height="48" viewBox="0 0 48 48" fill="none" xmlns="http://www.w3.org/2000/svg">
<path d="M43.42 18.5799L35.42 10.5799C35.2336 10.3934 35.0122 10.2455 34.7685 10.1446C34.5249 10.0436 34.2638 9.9917 34 9.9917C33.4674 9.9917 32.9566 10.2033 32.58 10.5799C32.2034 10.9565 31.9919 11.4673 31.9919 11.9999C31.9919 12.5325 32.2034 13.0433 32.58 13.4199L37.18 17.9999H14C13.4696 17.9999 12.9609 18.2106 12.5858 18.5857C12.2107 18.9607 12 19.4694 12 19.9999C12 20.5303 12.2107 21.039 12.5858 21.4141C12.9609 21.7892 13.4696 21.9999 14 21.9999H42C42.3949 21.9979 42.7803 21.8791 43.1078 21.6584C43.4352 21.4378 43.69 21.1251 43.84 20.7599C43.9932 20.3957 44.035 19.9942 43.9603 19.6063C43.8855 19.2183 43.6975 18.8611 43.42 18.5799ZM34 25.9999H6.00003C5.60518 26.0019 5.21975 26.1207 4.89231 26.3413C4.56487 26.562 4.31007 26.8746 4.16003 27.2399C4.00688 27.6041 3.96503 28.0055 4.03978 28.3935C4.11453 28.7815 4.30252 29.1386 4.58003 29.4199L12.58 37.4199C12.766 37.6073 12.9872 37.7561 13.2309 37.8577C13.4746 37.9592 13.736 38.0115 14 38.0115C14.2641 38.0115 14.5255 37.9592 14.7692 37.8577C15.0129 37.7561 15.2341 37.6073 15.42 37.4199C15.6075 37.234 15.7563 37.0128 15.8578 36.769C15.9594 36.5253 16.0116 36.2639 16.0116 35.9999C16.0116 35.7359 15.9594 35.4744 15.8578 35.2307C15.7563 34.987 15.6075 34.7658 15.42 34.5799L10.82 29.9999H34C34.5305 29.9999 35.0392 29.7892 35.4142 29.4141C35.7893 29.039 36 28.5303 36 27.9999C36 27.4694 35.7893 26.9607 35.4142 26.5857C35.0392 26.2106 34.5305 25.9999 34 25.9999Z" fill="#1D242D"/>
</svg>
