<svg width="48" height="48" viewBox="0 0 48 48" fill="none" xmlns="http://www.w3.org/2000/svg">
<path d="M14 12C13.6045 12 13.2178 12.1173 12.8889 12.3371C12.56 12.5569 12.3036 12.8692 12.1523 13.2347C12.0009 13.6001 11.9613 14.0023 12.0385 14.3902C12.1156 14.7782 12.3061 15.1345 12.5858 15.4142C12.8655 15.694 13.2219 15.8844 13.6099 15.9616C13.9978 16.0388 14.3999 15.9992 14.7654 15.8478C15.1309 15.6964 15.4432 15.4401 15.663 15.1112C15.8827 14.7823 16 14.3956 16 14C16 13.4696 15.7893 12.9609 15.4142 12.5858C15.0392 12.2107 14.5305 12 14 12ZM43.42 23.56L24.46 4.64003C24.2736 4.43896 24.0477 4.27838 23.7966 4.16828C23.5454 4.05819 23.2743 4.00092 23 4.00003H11C10.7368 3.99851 10.4759 4.04896 10.2322 4.14849C9.98855 4.24802 9.76691 4.39467 9.58003 4.58003L4.58003 9.56003C4.39467 9.74691 4.24802 9.96855 4.14849 10.2122C4.04896 10.4559 3.99851 10.7168 4.00003 10.98V22.98C4.0074 23.5096 4.21457 24.0168 4.58003 24.4L23.56 43.4C23.9433 43.7655 24.4505 43.9727 24.98 43.98C25.2432 43.9816 25.5042 43.9311 25.7478 43.8316C25.9915 43.732 26.2132 43.5854 26.4 43.4L43.42 26.38C43.6054 26.1932 43.752 25.9715 43.8516 25.7278C43.9511 25.4842 44.0016 25.2232 44 24.96C43.9877 24.4374 43.7809 23.9382 43.42 23.56ZM24.98 39.18L8.00003 22.18V11.8L11.8 8.00003H22.16L39.16 24.98L24.98 39.18Z" fill="#1D242D"/>
</svg>
