<svg width="48" height="48" viewBox="0 0 48 48" fill="none" xmlns="http://www.w3.org/2000/svg">
<path d="M23.97 43.47C24.3393 43.4689 24.7011 43.3656 25.0153 43.1714C25.3295 42.9772 25.5838 42.6999 25.75 42.37L31.87 30.13L39.87 30.13C41.5037 30.13 43.0705 29.481 44.2257 28.3258C45.381 27.1706 46.03 25.6038 46.03 23.97C46.03 22.3363 45.381 20.7695 44.2257 19.6143C43.0705 18.459 41.5037 17.81 39.87 17.81H31.87L25.75 5.57004C25.5838 5.24021 25.3295 4.96285 25.0153 4.76869C24.7011 4.57453 24.3393 4.47116 23.97 4.47004L17.31 4.47004C16.9842 4.46733 16.6626 4.54426 16.3733 4.69414C16.084 4.84402 15.8357 5.06232 15.65 5.33004C15.4676 5.59624 15.3523 5.90262 15.314 6.22302C15.2757 6.54343 15.3155 6.86834 15.43 7.17004L19.43 17.81H11.97L10.77 14.17C10.6358 13.7728 10.3802 13.4278 10.0392 13.1837C9.69828 12.9397 9.28926 12.809 8.86997 12.81L3.96997 12.81C3.70536 12.8111 3.44359 12.8647 3.19984 12.9677C2.95609 13.0707 2.7352 13.2211 2.54997 13.41C2.18049 13.7826 1.97218 14.2854 1.96997 14.81L1.96997 33.15C1.96997 33.6805 2.18068 34.1892 2.55576 34.5643C2.93083 34.9393 3.43954 35.15 3.96997 35.15H8.96997C9.38926 35.1511 9.79828 35.0204 10.1392 34.7764C10.4802 34.5323 10.7358 34.1873 10.87 33.79L11.97 30.13H19.41L15.41 40.77C15.2955 41.0717 15.2557 41.3967 15.294 41.7171C15.3323 42.0375 15.4476 42.3438 15.63 42.61C15.8157 42.8778 16.064 43.0961 16.3533 43.2459C16.6426 43.3958 16.9642 43.4728 17.29 43.47H23.97ZM24.17 28.85C24.2879 28.5456 24.3295 28.2169 24.2912 27.8927C24.2528 27.5685 24.1357 27.2586 23.95 26.99C23.7662 26.7251 23.5211 26.5085 23.2355 26.3588C22.9499 26.2091 22.6324 26.1306 22.31 26.13H10.63C10.2082 26.1303 9.79736 26.264 9.45611 26.5118C9.11487 26.7597 8.86071 27.1091 8.72997 27.51L7.52997 31.13H5.96997L5.96997 16.79L7.52997 16.79L8.72997 20.41C8.86071 20.811 9.11487 21.1604 9.45611 21.4082C9.79736 21.6561 10.2082 21.7897 10.63 21.79H22.31C22.6324 21.7895 22.9499 21.711 23.2355 21.5613C23.5211 21.4115 23.7662 21.195 23.95 20.93C24.1357 20.6615 24.2528 20.3516 24.2912 20.0274C24.3295 19.7032 24.2879 19.3745 24.17 19.07L20.17 8.45004H22.73L28.85 20.67C29.0134 21.0036 29.2665 21.2851 29.5809 21.4829C29.8953 21.6807 30.2585 21.7871 30.63 21.79L39.81 21.79C40.3828 21.79 40.9322 22.0176 41.3373 22.4227C41.7424 22.8278 41.97 23.3772 41.97 23.95C41.97 24.5229 41.7424 25.0723 41.3373 25.4774C40.9322 25.8825 40.3828 26.11 39.81 26.11L30.63 26.11C30.2585 26.113 29.8953 26.2194 29.5809 26.4172C29.2665 26.615 29.0134 26.8965 28.85 27.23L22.73 39.45H20.19L24.17 28.85Z" fill="white"/>
</svg>
